<!DOCTYPE svg PUBLIC "-//W3C//DTD SVG 1.1//EN" "http://www.w3.org/Graphics/SVG/1.1/DTD/svg11.dtd">
<!-- Uploaded to: SVG Repo, www.svgrepo.com, Transformed by: SVG Repo Mixer Tools -->
<svg fill="#ffffff" width="800px" height="800px" viewBox="0 0 52 52" data-name="Layer 1" id="Layer_1" xmlns="http://www.w3.org/2000/svg">
<g id="SVGRepo_bgCarrier" stroke-width="0"/>
<g id="SVGRepo_tracerCarrier" stroke-linecap="round" stroke-linejoin="round"/>
<g id="SVGRepo_iconCarrier">
<path d="M50,0H2A2,2,0,0,0,0,2V50a2,2,0,0,0,2,2H50a2,2,0,0,0,2-2V2A2,2,0,0,0,50,0ZM32.54,4v9.88a2,2,0,1,0,4,0V4h4.08V19.46H11.38V4ZM48,48H4V4H7.38V21.46a2,2,0,0,0,2,2H42.62a2,2,0,0,0,2-2V4H48Z"/>
<path d="M42.62,38.77H9.38a2,2,0,0,0,0,4H42.62a2,2,0,0,0,0-4Z"/>
<path d="M42.62,32.31H9.38a2,2,0,0,0,0,4H42.62a2,2,0,1,0,0-4Z"/>
</g>
</svg>