<?xml version="1.0" ?><!-- Uploaded to: SVG Repo, www.svgrepo.com, Generator: SVG Repo Mixer Tools -->
<svg fill="#000000" width="800px" height="800px" viewBox="0 0 52 52" data-name="Layer 1" id="Layer_1" xmlns="http://www.w3.org/2000/svg"><path d="M50,0H2A2,2,0,0,0,0,2V50a2,2,0,0,0,2,2H50a2,2,0,0,0,2-2V2A2,2,0,0,0,50,0ZM32.54,4v9.88a2,2,0,1,0,4,0V4h4.08V19.46H11.38V4ZM48,48H4V4H7.38V21.46a2,2,0,0,0,2,2H42.62a2,2,0,0,0,2-2V4H48Z"/><path d="M42.62,38.77H9.38a2,2,0,0,0,0,4H42.62a2,2,0,0,0,0-4Z"/><path d="M42.62,32.31H9.38a2,2,0,0,0,0,4H42.62a2,2,0,1,0,0-4Z"/></svg>