<!DOCTYPE svg PUBLIC "-//W3C//DTD SVG 1.1//EN" "http://www.w3.org/Graphics/SVG/1.1/DTD/svg11.dtd">
<!-- Uploaded to: SVG Repo, www.svgrepo.com, Transformed by: SVG Repo Mixer Tools -->
<svg fill="#ffffff" width="800px" height="800px" viewBox="0 0 52 52" data-name="Layer 1" id="Layer_1" xmlns="http://www.w3.org/2000/svg">
<g id="SVGRepo_bgCarrier" stroke-width="0"/>
<g id="SVGRepo_tracerCarrier" stroke-linecap="round" stroke-linejoin="round"/>
<g id="SVGRepo_iconCarrier">
<path d="M4.65,27.38,24,7V44a2,2,0,0,0,4,0V7L47.35,27.38a2,2,0,0,0,2.9-2.76L27.45.62h0a2,2,0,0,0-2.86,0h0l-22.8,24a2,2,0,0,0,2.9,2.76Z"/>
<path d="M50,42a2,2,0,0,0-2,2v4H4V44a2,2,0,0,0-4,0v6a2,2,0,0,0,2,2H50a2,2,0,0,0,2-2V44A2,2,0,0,0,50,42Z"/>
</g>
</svg>