<?xml version="1.0" encoding="utf-8"?><!-- Uploaded to: SVG Repo, www.svgrepo.com, Generator: SVG Repo Mixer Tools -->
<svg width="800px" height="800px" viewBox="0 0 24 24" fill="none" xmlns="http://www.w3.org/2000/svg">
<path d="M4 1H11C11.5523 1 12 1.44772 12 2Lnan nanL12 2C12 2.55228 11.5523 3 11 3H4C3.44772 3 3 3.44772 3 4V20C3 20.5523 3.44772 21 4 21H20C20.5523 21 21 20.5523 21 20V13C21 12.4477 21.4477 12 22 12Lnan nanL22 12C22.5523 12 23 12.4477 23 13V20C23 21.6569 21.6569 23 20 23H4C2.34315 23 1 21.6569 1 20V4C1 2.34315 2.34315 1 4 1Z" fill="#0F0F0F"/>
<path fill-rule="evenodd" clip-rule="evenodd" d="M21.3056 1.87868C20.1341 0.707107 18.2346 0.707107 17.063 1.87868L6.38904 12.5526C5.9856 12.9561 5.70557 13.4662 5.5818 14.0232L5.04903 16.4206C4.73147 17.8496 6.00627 19.1244 7.43526 18.8069L9.83272 18.2741C10.3897 18.1503 10.8998 17.8703 11.3033 17.4669L21.9772 6.79289C23.1488 5.62132 23.1488 3.72183 21.9772 2.55025L21.3056 1.87868ZM18.4772 3.29289C18.8677 2.90237 19.5009 2.90237 19.8914 3.29289L20.563 3.96447C20.9535 4.35499 20.9535 4.98816 20.563 5.37868L18.6414 7.30026L16.5556 5.21448L18.4772 3.29289ZM15.1414 6.62869L7.80325 13.9669C7.66877 14.1013 7.57543 14.2714 7.53417 14.457L7.0014 16.8545L9.39886 16.3217C9.58452 16.2805 9.75456 16.1871 9.88904 16.0526L17.2272 8.71448L15.1414 6.62869Z" fill="#0F0F0F"/>
</svg>